<?xml version="1.0" standalone="no"?>
<!DOCTYPE svg PUBLIC "-//W3C//DTD SVG 20010904//EN"
 "http://www.w3.org/TR/2001/REC-SVG-20010904/DTD/svg10.dtd">
<svg version="1.0" xmlns="http://www.w3.org/2000/svg"
 width="192.000000pt" height="192.000000pt" viewBox="0 0 192.000000 192.000000"
 preserveAspectRatio="xMidYMid meet">
<metadata>
Created by potrace 1.11, written by Peter Selinger 2001-2013
</metadata>
<g transform="translate(0.000000,192.000000) scale(0.100000,-0.100000)"
fill="#000000" stroke="none">
<path d="M0 960 l0 -960 960 0 960 0 0 960 0 960 -960 0 -960 0 0 -960z m957
868 c-3 -8 -6 -5 -6 6 -1 11 2 17 5 13 3 -3 4 -12 1 -19z m62 -72 c-2 -2 -47
-5 -99 -8 -52 -3 -81 -2 -65 2 30 8 172 13 164 6z m44 -13 c-7 -2 -19 -2 -25
0 -7 3 -2 5 12 5 14 0 19 -2 13 -5z m-65 -100 c-21 -2 -57 -2 -80 0 -24 2 -7
4 37 4 44 0 63 -2 43 -4z m-158 -13 c-14 -4 -34 -8 -45 -8 l-20 -1 20 9 c11 5
31 8 45 8 l25 0 -25 -8z m275 0 l20 -9 -20 1 c-11 0 -33 4 -50 8 l-30 8 30 0
c17 0 39 -3 50 -8z m-348 -16 c-3 -3 -12 -4 -19 -1 -8 3 -5 6 6 6 11 1 17 -2
13 -5z m400 0 c-3 -3 -12 -4 -19 -1 -8 3 -5 6 6 6 11 1 17 -2 13 -5z m-447
-14 c-8 -5 -19 -10 -25 -10 -5 0 -3 5 5 10 8 5 20 10 25 10 6 0 3 -5 -5 -10z
m340 -3 c46 -10 56 -16 64 -39 5 -15 7 -31 3 -34 -4 -4 -33 -1 -66 6 -58 12
-170 9 -248 -6 -28 -5 -33 -3 -33 13 0 60 139 89 280 60z m150 3 c8 -5 11 -10
5 -10 -5 0 -17 5 -25 10 -8 5 -10 10 -5 10 6 0 17 -5 25 -10z m-530 -15 c0 -2
-19 -14 -42 -26 -24 -12 -58 -32 -75 -46 -18 -13 -33 -20 -33 -16 0 5 30 28
68 50 65 40 82 48 82 38z m604 -21 c25 -14 48 -29 51 -34 3 -4 -20 5 -50 22
-48 26 -64 38 -51 38 2 0 24 -12 50 -26z m87 -61 c13 -16 12 -17 -3 -4 -10 7
-18 15 -18 17 0 8 8 3 21 -13z m-256 -64 c137 -42 262 -165 310 -304 26 -75
31 -206 11 -285 -55 -213 -261 -376 -468 -371 -27 1 -48 -1 -48 -4 0 -12 23
-50 46 -78 13 -16 24 -34 24 -40 0 -6 -7 -1 -16 11 -20 28 -28 28 -42 -3 -20
-44 -15 -55 23 -55 26 0 35 4 36 18 1 16 2 16 6 0 3 -12 15 -19 36 -20 l32 -1
-32 -4 c-32 -4 -33 -6 -35 -51 l-2 -47 -3 47 c-4 47 -5 48 -39 48 -34 0 -34 0
-36 -47 l-2 -48 -3 48 c-4 43 -6 47 -31 48 l-27 2 28 4 c17 3 27 10 27 21 0 9
7 30 15 46 14 26 14 33 -1 66 -16 35 -22 39 -82 54 -136 34 -265 137 -326 261
-92 190 -51 427 100 572 12 13 51 41 85 63 122 79 264 96 414 49z m-860 -19
c10 -11 16 -20 13 -20 -3 0 -13 9 -23 20 -10 11 -16 20 -13 20 3 0 13 -9 23
-20z m1405 -5 c-7 -9 -15 -13 -18 -10 -3 2 1 11 8 20 7 9 15 13 18 10 3 -2 -1
-11 -8 -20z m-1170 -106 c0 -6 -11 -29 -24 -52 -34 -57 -57 -130 -66 -205 -5
-35 -11 -66 -13 -69 -11 -10 -47 19 -53 44 -12 45 45 231 84 276 16 18 72 24
72 6z m1004 -7 c20 -23 71 -161 81 -219 8 -53 1 -77 -30 -91 -23 -11 -24 -10
-31 46 -9 73 -46 184 -78 232 -14 21 -22 41 -19 44 13 13 61 5 77 -12z m-933
-715 c39 -37 94 -78 139 -101 41 -21 77 -40 79 -42 11 -10 -26 -34 -52 -34
-65 0 -247 137 -247 186 0 21 9 54 15 54 1 0 31 -28 66 -63z m879 16 c0 -42
-112 -140 -212 -186 -27 -13 -43 -15 -62 -7 -39 14 -31 37 20 60 63 27 141 84
188 137 30 34 42 41 52 32 8 -6 14 -23 14 -36z m-1185 -73 c-10 -11 -21 -18
-23 -15 -3 3 3 12 14 20 27 20 30 18 9 -5z m1406 3 c13 -16 12 -17 -3 -4 -17
13 -22 21 -14 21 2 0 10 -8 17 -17z m-296 -98 c-39 -33 -191 -108 -207 -103
-6 2 15 14 48 27 32 12 84 39 114 60 62 44 91 54 45 16z m-745 -35 c46 -27 79
-50 74 -50 -12 0 -164 89 -164 95 0 9 5 6 90 -45z m360 26 c0 -3 -4 -8 -10
-11 -5 -3 -10 -1 -10 4 0 6 5 11 10 11 6 0 10 -2 10 -4z m-235 -86 c13 -6 15
-9 5 -9 -8 0 -22 4 -30 9 -18 12 -2 12 25 0z m70 -20 c13 -5 14 -9 5 -9 -8 0
-24 4 -35 9 -13 5 -14 9 -5 9 8 0 24 -4 35 -9z m310 0 c-11 -5 -29 -8 -40 -8
-16 0 -15 2 5 8 34 11 60 11 35 0z m-128 -267 c-3 -10 -5 -4 -5 12 0 17 2 24
5 18 2 -7 2 -21 0 -30z m-80 5 c-3 -8 -6 -5 -6 6 -1 11 2 17 5 13 3 -3 4 -12
1 -19z"/>
<path d="M848 1419 c-68 -16 -161 -70 -214 -124 -180 -185 -178 -464 4 -645
76 -75 160 -120 234 -125 27 -2 52 -6 55 -9 9 -9 51 -7 57 3 3 4 17 6 31 4 14
-3 57 5 95 18 122 40 230 146 282 278 26 67 32 224 10 281 -64 166 -178 277
-323 315 -55 15 -179 17 -231 4z m252 -103 c56 -29 80 -56 80 -90 0 -62 13
-106 38 -131 24 -25 25 -26 14 -111 -7 -48 -19 -98 -27 -111 -24 -36 -59 -49
-92 -34 -21 10 -29 9 -40 -2 -12 -12 -11 -19 7 -50 l22 -37 -70 -66 c-39 -36
-74 -65 -77 -65 -3 0 -38 29 -78 65 l-72 65 18 30 c32 54 17 77 -36 57 -57
-22 -95 30 -110 148 -10 82 -9 88 11 109 28 30 42 70 42 121 0 52 35 90 101
112 62 20 222 14 269 -10z"/>
<path d="M730 1015 c0 -33 32 -93 56 -104 38 -17 79 -13 99 9 26 29 7 49 -30
32 -38 -17 -44 -15 -53 20 -6 23 -17 36 -40 45 -27 11 -32 11 -32 -2z"/>
<path d="M1139 1015 c-17 -9 -29 -26 -33 -46 -5 -27 -9 -30 -28 -25 -66 18
-68 18 -68 4 0 -23 34 -48 63 -48 58 0 94 35 110 108 6 26 -6 28 -44 7z"/>
<path d="M960 870 c0 -37 2 -41 15 -30 8 7 15 20 15 30 0 10 -7 23 -15 30 -13
11 -15 7 -15 -30z"/>
<path d="M924 885 c-8 -19 2 -45 16 -45 5 0 10 14 10 30 0 31 -16 41 -26 15z"/>
</g>
</svg>
